<?xml version="1.0" encoding="UTF-8" standalone="no"?>
<svg
   xmlns:dc="http://purl.org/dc/elements/1.1/"
   xmlns:cc="http://creativecommons.org/ns#"
   xmlns:rdf="http://www.w3.org/1999/02/22-rdf-syntax-ns#"
   xmlns:svg="http://www.w3.org/2000/svg"
   xmlns="http://www.w3.org/2000/svg"
   xmlns:sodipodi="http://sodipodi.sourceforge.net/DTD/sodipodi-0.dtd"
   xmlns:inkscape="http://www.inkscape.org/namespaces/inkscape"
   version="1.1"
   height="477"
   width="400"
   id="svg145"
   sodipodi:docname="BlankMap-Africa.svg"
   inkscape:version="1.0.2-2 (e86c870879, 2021-01-15)">
  <sodipodi:namedview
     pagecolor="#ffffff"
     bordercolor="#666666"
     borderopacity="1"
     objecttolerance="10"
     gridtolerance="10"
     guidetolerance="10"
     inkscape:pageopacity="0"
     inkscape:pageshadow="2"
     inkscape:window-width="1360"
     inkscape:window-height="705"
     id="namedview147"
     showgrid="false"
     inkscape:zoom="0.269"
     inkscape:cx="-227.92658"
     inkscape:cy="109.03832"
     inkscape:window-x="-8"
     inkscape:window-y="-8"
     inkscape:window-maximized="1"
     inkscape:current-layer="svg145" />
  <metadata
     id="metadata24111">
    <rdf:RDF>
      <cc:Work
         rdf:about="">
        <dc:format>image/svg+xml</dc:format>
        <dc:type
           rdf:resource="http://purl.org/dc/dcmitype/StillImage" />
        <cc:license
           rdf:resource="http://web.resource.org/cc/PublicDomain" />
        <dc:title>Blank Africa Map</dc:title>
      </cc:Work>
      <cc:License
         rdf:about="http://web.resource.org/cc/PublicDomain">
        <cc:permits
           rdf:resource="http://web.resource.org/cc/Reproduction" />
        <cc:permits
           rdf:resource="http://web.resource.org/cc/Distribution" />
        <cc:permits
           rdf:resource="http://web.resource.org/cc/DerivativeWorks" />
      </cc:License>
    </rdf:RDF>
  </metadata>
  <defs
     id="defs1930" />
  <style
     type="text/css"
     id="style_css_sheet">
/*
 * Below are Cascading Style Sheet (CSS) definitions in use in this file,
 * which allow easily changing how countries are displayed.
 *
 */

/*
 * Circles around small countries
 *
 * Change opacity to 1 to display all circles.
 *
 */
.circle
{
   opacity:0;
   fill:#b9b9b9;
   fill-opacity:1;
   stroke:black;
   stroke-width:0.5;
   stroke-miterlimit:3.97446823;
   stroke-dasharray:none;
   stroke-opacity:1;
}


/*
 * Land
 */
.land
{
   fill: #b9b9b9;
   fill-opacity: 1;
   stroke:white;
   stroke-opacity: 1;
   stroke-width:0.5;
   stroke-miterlimit: 3.97446823;
   stroke-dasharray: none;
}

/*
 * Styles for coastlines of islands with no borders
 */
.coast
{
   stroke-width: 0.3;
}

/*
 * Additional style rules
 *
 * The following are examples of colouring countries.  You can substitute these with your own styles to colour the countries on the map.
 *
 * Color a few countries:
 *
 * .gb, .au, .nc
 * {
 *    fill:       #ff0000;
 * }
 *
 * Color a few small country circles (and the countries):
 *
 * .ms, .ky
 * {
 *    opacity:    1;
 *    fill:       #ff0000;
 * }
 *
 * Remove european territories (Saint Helena, Madeira, Canary Islands, Mayotte, Reunion)
 *
 * .sh, .pt-30, .es-cn, .yt, .re
 * {
 *    opacity:    0;
 * }
 *
 */

</style>
  <g
     id="g1126"
     transform="matrix(1.1369674,0,0,1.1361434,-507.44375,-656.69814)">
    <path
       class="land bw"
       d="m 544.28316,859.29424 1.3606,-38.23158 10.8652,0.0143 1.52944,-50.76949 c 3.85286,-0.93147 13.64316,-1.50616 19.22124,-3.43812 1.73495,-0.60089 5.98336,-1.50288 7.72437,-0.50483 2.35802,1.35039 2.8116,4.16134 3.95793,6.37427 3.06047,-2.41901 5.47174,-7.37124 9.09055,-7.45523 1.3539,-0.0314 1.2144,0.7605 2.20448,0.89761 1.28184,0.17697 2.03373,-1.58205 2.99287,-2.15423 3.10353,-1.85153 6.34496,-1.59068 5.79508,-0.46787 -0.15465,0.31689 7.9e-4,2.08655 0.14986,2.4644 0.82905,2.09176 1.99387,4.08771 3.36085,5.86873 1.33924,1.74482 2.41732,2.67983 3.41824,5.68379 0.7149,2.14586 0.98355,2.60093 1.60055,4.63848 1.29619,4.27759 4.41008,7.93235 8.30168,9.93746 4.11704,2.12127 7.89097,1.68683 6.48111,8.2453 3.75879,-0.87816 6.70176,-0.43809 5.07635,4.555 -0.5593,1.71827 -0.36989,3.02444 0.6186,4.51992 1.06979,1.62303 1.81594,5.48817 3.53112,6.02048 3.44088,1.0679 6.42132,0.88884 10.09657,2.14178 2.72902,0.93032 0.36733,2.21294 1.20914,3.61418 0.64921,1.08061 3.07467,0.73682 3.45842,2.28686 -4.28907,0.5312 -3.60366,1.44168 -5.18827,3.65768 -1.77034,2.47574 -6.60786,1.24376 -8.70313,3.5013 -1.88864,2.03492 -3.47133,5.43891 -6.02003,7.44609 -0.28283,0.22265 -1.271,1.1413 -2.30747,1.86943 -1.72538,1.21209 -3.62343,1.65439 -4.93605,3.14083 -1.75041,1.98217 -2.08968,2.56231 -2.39229,5.54087 -0.3718,3.65741 -2.50708,4.48685 -5.10154,7.57857 -1.52449,1.81672 -4.04035,2.31948 -6.5959,2.7356 -1.84288,0.30008 -0.75109,1.01297 -1.10343,2.79862 -0.46395,2.34845 -1.6039,4.47688 -2.3628,6.72808 -1.13038,3.34171 -2.91061,4.50774 -6.32566,4.2112 -3.09938,-0.26785 -2.73715,1.95576 -6.72505,1.07977 -1.58285,-0.34767 -5.37305,-2.11788 -6.72393,-2.20899 -1.97824,-0.13345 -3.2671,-1.36405 -4.40481,-2.78863 -1.69318,-2.12046 -6.311,-3.67413 -8.69882,-0.5944 -2.18232,2.81478 -1.21903,5.95585 -3.23123,8.85058 -0.99263,1.42799 -2.40633,2.40873 -3.75035,3.33025 -1.66129,1.13676 -2.14469,2.9714 -3.55567,4.28832 -1.05066,0.9821 -1.95098,0.55584 -3.126,1.03414 -0.39061,0.33481 -0.4284,0.7244 -0.33912,1.28082 -0.45757,1.27068 -2.37459,1.62375 -3.48584,1.552 -1.76811,-0.11638 -2.75787,-0.55509 -4.46317,-0.68961 -1.54793,-0.12212 -2.92942,-0.73014 -4.91229,0.9121 -2.88924,-5.51144 3.14482,-8.00599 1.03472,-15.49689 -0.80051,-2.84192 -1.93392,-5.99468 -3.39751,-8.56155 -1.27866,-2.24163 -3.75306,-3.35766 -5.22941,-5.43666"
       id="bw" />
    <g
       transform="matrix(1.59433,0,0,1.59433,-1767.5574,-594.4011)"
       class="land coast mz"
       id="mz">
      <path
         d="m 1566.1089,886.0907 c 0.255,-0.717 0.399,-1.477 0.36,-2.24 -0.312,0.686 -0.654,1.476 -0.36,2.24"
         id="path3382" />
      <path
         d="m 1573.6689,860.9607 c 0.604,-0.574 0.461,-0.814 -0.431,-0.72 0.144,0.24 0.288,0.48 0.431,0.72"
         id="path3384" />
      <path
         class="land mz"
         d="m 1528.5989,827.3307 c 5.537,-2.081 11.094,-4.114 16.664,-6.104 1.245,-0.445 2.4177,-1.03754 3.6517,-1.51454 0.418,-0.161 1.4766,-0.84801 1.9416,-0.70201 l 4.1627,4.65155 c 0.041,-0.933 2.044,-0.607 2.986,-0.873 0.81,-0.228 2.03,-0.987 2.695,-0.125 1.229,1.594 1.236,5.456 0.597,7.223 -0.811,2.239 -2.697,4.252 -1.5,6.556 0.285,0.547 0.121,1.199 0.452,1.719 0.374,0.588 1.038,0.908 1.41,1.495 0.729,1.149 1.852,2.224 2.886,3.107 0.986,0.842 0.933,0.996 0.257,2.102 -0.722,1.181 1.618,1.626 1.772,0.036 0.148,-1.546 -0.298,-2.913 -1.186,-4.169 1.406,-1.024 0.675,-3.147 2.741,-3.576 2.8,-0.581 3.048,-1.803 3.057,-4.626 0,-1.027 -0.178,-2.075 -0.117,-3.1 0.1,-1.67 0.977,-3.514 0.26,-5.152 -0.718,-1.641 -2.217,-3.187 -3.181,-4.715 -0.896,-1.421 -1.772,-2.95 -2.907,-4.201 -0.834,-0.918 -0.5197,-0.0811 -1.2697,-0.92106 -0.2225,-0.71864 0.1597,-2.12844 -0.2987,-3.52177 -0.6006,-1.82531 0.4723,-2.92877 0.2334,-3.73775 -1.3853,-4.67745 -0.5479,-3.53239 -0.6139,-4.12065 0.5414,-1.23118 2.3458,-1.00026 1.9074,-5.36157 1.5004,0.14079 2.8631,0.47205 4.6185,-0.0362 0.9926,-0.28739 1.927,-1.51 3.013,-0.807 0.751,0.486 1.115,1.415 1.913,1.84 0.611,0.326 2.64,0.438 3.313,0.265 1.119,-0.288 1.925,-2.168 3.188,-0.797 2.344,2.544 5.159,-0.469 6.294,-2.338 0.626,-1.032 1.742,-1.06 2.719,-0.441 1.592,1.009 1.977,1 3.487,-0.06 1.262,-0.885 2.252,-1.508 3.897,-1.185 0.946,0.187 2.773,-1.628 3.656,-2.03 1.742,-0.792 3.197,-1.906 4.699,-3.065 1.834,-1.417 3.029,0.954 1.438,1.715 0.243,0.114 0.482,0.234 0.72,0.36 -0.728,0.938 -0.315,1.994 -0.72,3.02 -0.217,0.552 -1.608,1.267 -0.788,1.85 0.68,0.482 0.521,3.061 0.618,4.059 0.072,0.748 0.131,1.51 0.064,2.261 -0.1,1.139 -0.455,0.853 -0.137,1.862 0.073,0.376 0.047,0.746 -0.079,1.107 -0.148,0.698 0.291,0.91 0.471,1.514 0.264,0.878 -0.068,2.138 -0.659,2.827 2.004,0.285 -0.604,4.684 0.181,4.935 1.371,0.439 0.032,5.016 0.469,6.085 1.51,-0.895 -0.219,2.024 0.221,2.73 0.121,-1.273 1.404,-1.054 1.184,0.208 -0.238,1.368 0.09,2.338 -1.334,3.112 0.259,0.202 0.525,0.392 0.801,0.57 -1.648,-0.393 -0.227,0.208 -0.7,0.775 -0.299,0.358 -0.764,0.493 -0.96,0.955 1.591,-0.566 0.217,1.958 -0.02,2.457 -0.797,1.685 -2.494,2.619 -3.313,4.293 -0.813,1.662 -2.141,2.628 -3.045,4.203 -0.692,1.208 -5.384,2.839 -5.215,4.153 0.078,0.608 -3.543,1.23 -4.248,1.664 -0.624,0.384 -1.331,0.691 -2.033,0.896 -1.133,0.331 -0.938,-0.102 -1.761,0.659 -1.184,1.095 -2.843,1.613 -4.251,2.345 -1.401,0.729 -3.633,4.137 -5.205,2.8 2.936,3.221 -4.194,4.458 -3.53,7.71 -0.606,0.083 -1.013,-0.313 -1.15,-0.87 0.142,1.143 -0.944,2.592 -0.79,1.01 -1.371,1.189 -3.03,2.005 -4.145,3.473 -0.987,1.299 -1.885,2.532 -3.073,3.666 -0.481,0.459 -2.393,2.476 -3.08,1.641 -0.443,-0.538 -1.009,-2.383 -2.012,-1.799 1.729,-0.104 1.125,2.072 1.466,2.6 0.32,0.497 0.303,1.304 0.063,1.826 -0.109,0.275 -0.309,0.434 -0.599,0.474 0.222,0.414 0.296,0.854 0.222,1.32 -0.188,2.273 0.559,1.645 1.729,3.141 0.656,0.839 0.845,1.832 0.831,2.872 -0.01,0.403 -0.327,3.538 0.249,1.598 -0.438,1.693 0.688,3.523 0.859,5.25 0.104,1.035 0.474,2.118 0.303,3.163 -0.145,0.881 -0.526,1.86 0.418,2.458 0.169,-1.109 0.121,-2.108 0.869,-3.03 -0.018,0.339 0,2.768 0.36,0.729 -0.201,1.171 -0.494,2.329 -0.598,3.516 -0.094,1.065 0.661,2.012 0.525,3.048 -0.372,2.827 -2.405,5.553 -1.947,8.556 -0.262,-1.642 0.942,0.05 1.01,-1.37 1.083,1.826 -1.018,4.556 -2.142,5.844 -1.858,2.129 -4.677,3.102 -7.272,4.017 -2.937,1.036 -5.896,2.114 -8.516,3.819 -1.183,0.77 -2.419,1.447 -3.077,2.763 -0.565,1.129 -0.851,2.442 -2.323,2.636 0.982,-0.011 2.552,3.49 3.38,1.37 -0.176,1.795 0.763,6.44428 -1.091,6.31673 l -4.475,-0.17323 c 0.067,-1.47179 -0.8474,-3.13731 -0.6132,-4.2775 0.1968,-0.95837 -0.269,-1.88524 -0.9187,-2.74254 -0.4782,-0.63108 -0.37,-2.15766 0.1313,-3.36206 0.285,-0.68474 0.2466,-3.1394 0.2766,-3.8434 0.072,-1.724 0.059,-3.447 0.1892,-5.167 0.117,-1.552 -0.2392,-2.587 -0.4892,-4.069 -0.376,-2.22 -1.888,-4.035 -2.349,-6.196 -0.222,-1.043 -0.056,-2.143 -0.2386,-3.219 -0.254,-1.495 -0.5554,-2.932 -0.9624,-4.388 -0.264,-0.944 -0.6868,-0.66392 -0.1564,-1.36092 0.5303,-0.41882 2.0139,-2.35146 2.6394,-2.99008 0.9322,-0.95174 5.266,-7.046 6.406,-6.217 -1.149,-1.483 10e-4,-2.342 0.36,-3.82 0.221,-0.909 -0.66,-2.178 0.339,-2.774 1.39,-0.829 1.753,-1.958 2.52,-3.387 0.328,-0.611 0.5066,-1.12821 0.7436,-1.78821 0.376,-1.041 0.087,-1.84079 0.1384,-2.85079 -0.24,0.096 -0.479,0.193 -0.72,0.29 -0.5269,-1.04794 -0.8996,-1.9898 -0.6938,-2.57109 0.2497,-0.70485 1.1452,-1.28789 0.808,-2.23251 -0.2891,-0.81009 -1.4565,-0.52164 -1.1276,-1.82341 0.2456,-0.972 1.9483,-1.13029 1.8104,-2.31399 -0.2371,-2.03511 1.0291,-1.27211 0.905,-2.606 -0.1026,-1.10215 -0.722,-2.15061 -0.512,-3.26161 0.147,-0.781 0.6596,-1.64814 0.4662,-2.42739 -0.3851,-1.55173 -0.2559,-2.60274 -0.2214,-4.26642 0.011,-0.54041 -0.279,-0.9326 -0.429,-1.4586 -0.218,-0.763 0.5262,-2.05998 0.6542,-2.81898 -1.0553,0.29719 -1.5908,0.28722 -2.152,-0.751 -0.5307,-0.98189 -3.561,-1.0648 -4.35,-1.519 -2.43,-1.3989 -4.7529,-2.85695 -7.3659,-3.596 -0.8366,-0.23662 -3.4527,-0.16047 -4.3665,-0.37819 -1.4794,-0.35247 -0.8846,-2.75381 -1.0216,-3.85581 -0.195,-1.602 -1.404,-3.029 -1.261,-4.662"
         id="path3462" />
      <path
         d="m 1600.8089,838.8507 c 0.24,-0.167 0.479,-0.333 0.72,-0.5 0,0.42 -0.065,0.827 -0.21,1.221 -0.17,-0.241 -0.34,-0.481 -0.51,-0.721"
         id="path3466" />
    </g>
    <g
       transform="matrix(1.59433,0,0,1.59433,-1769.4532,-765.12563)"
       class="land ao"
       id="ao">
      <path
         d="m 1390.038,953.923 c -0.109,-3.509 0.841,-7.05 0.444,-10.57 -0.062,-0.544 -0.463,-1.068 -0.237,-1.625 0.323,-0.796 1.2,-1.259 1.55,-2.087 0.281,-0.664 0.313,-1.381 0.406,-2.085 0.084,-0.634 0.92,-1.41 0.711,-1.947 -0.447,-1.146 1.116,-4.228 1.366,-5.515 0.357,-1.837 -0.035,-3.832 0.994,-5.444 0.685,-1.074 0.251,-3.32 1.042,-4.014 0.813,-0.713 2.129,-2.26 2.64,-3.221 0.755,-1.419 0.291,-3.665 2.589,-3.875 1.617,-0.147 1.759,-1.387 2.558,-2.783 1.896,-3.314 2.432,-8.451 1.557,-12.122 -0.404,-1.695 -1.07,-2.902 -2.024,-4.335 -0.994,-1.492 -1.026,-2.651 -1.573,-4.212 -0.249,-0.712 -0.883,-1.249 -0.979,-2.01 -0.118,-0.931 0.02,-1.793 -0.393,-2.669 -0.612,-1.3 -1.825,-2.981 -10e-4,-3.913 -0.487,0.353 -0.836,0.897 -0.79,1.52 0.388,-0.731 0.815,-1.479 1.41,-2.064 0.476,-0.468 1.245,-0.439 1.328,-1.188 0.215,-1.952 -0.182,-3.743 -1.116,-5.449 -1.051,-1.919 -1.602,-3.93 -2.417,-5.951 -0.361,-0.896 -0.333,-1.893 -0.594,-2.815 -0.388,-1.371 -1.656,-2.297 -2.361,-3.491 -0.577,-0.977 -2.588,-4.384 -0.835,-4.926 0.809,-0.25 1.644,-0.255 2.474,-0.363 1.154,-0.151 1.723,-1.188 2.999,-1.311 5.892,-0.566 11.845,0.106 17.768,-0.028 2.248,-0.051 4.551,-0.23 6.797,-0.149 2.11,0.077 1.659,1.516 2.638,2.87 0.408,0.564 0.032,2.271 0.22,3.023 0.337,1.354 1,2.588 1.502,3.881 0.39,1.002 -0.213,1.879 0.631,2.777 0.901,0.958 1.133,1.655 1.673,2.821 0.333,0.717 1.884,4.091 2.905,3.809 0.613,-0.169 3.722,0.07 3.719,0.063 -0.16,-0.393 3.35,-1.408 3.989,-1.266 1.798,0.399 3.448,0.61 5.58,0.61 -0.26,-1.258 0.495,-2.494 0.07,-3.74 1.064,0.228 1.161,-0.79 1.026,-1.565 -0.187,-1.073 0.644,-2.394 0.274,-3.335 1.851,0 3.707,0.036 5.557,0.02 0.553,-0.005 0.229,-0.649 0.68,-0.802 0.643,-0.219 1.386,-0.007 2.044,-0.007 -0.412,2.063 -1.539,3.24 1.084,3.24 2.292,0 4.605,-0.121 6.894,-0.07 1.9,0.042 1.553,1.943 1.111,3.224 -0.247,0.719 -0.572,1.453 -0.637,2.219 -0.101,1.214 0.951,2.44 1.168,3.653 0.455,2.548 -0.491,5.367 -0.689,7.928 -0.207,2.671 0.736,3.721 2.269,5.721 1.082,1.412 1.624,5.067 1.298,6.795 -0.114,0.609 -0.689,0.996 -0.902,1.575 -0.396,1.076 0.69,2.109 0.354,3.225 0.93,0.023 1.758,-1.304 2.516,-1.712 0.651,-0.35 2.618,0.176 3.339,0.375 1.278,0.353 2.79,-1.085 4.156,-1.032 1.304,0.051 2.759,0.86 3.31,-0.87 0.6101,0.88064 0.684,3.68063 0.5007,4.677 -0.2535,1.37855 -0.2303,2.75351 -0.5687,4.118 -0.4074,1.64243 0.635,3.141 0.207,4.745 -0.432,1.618 -1.59,2.937 -0.21,4.46 -2.837,1.19692 -6.8121,0.62065 -9.8384,0.60372 -1.5169,-0.008 -3.2953,-0.37415 -4.8038,-0.17236 -1.326,0.17739 -0.6639,5.11353 -0.7243,6.69364 -0.1606,4.20264 0.07,7.16898 -0.091,10.385 -0.1601,3.20359 0.01,6.469 -0.078,9.68 -0.09,3.28215 2.191,4.159 4.081,6.501 2.016,2.498 4.048,5.005 6.775,6.778 -4.457,0.867 -8.941,1.625 -13.34,2.765 -1.753,0.455 -2.428,0.011 -4.09,-0.175 -0.742,-0.083 -1.373,0.273 -2.049,0.497 -1.098,0.364 -2.145,-0.171 -3.194,-0.459 -3.732,-1.021 -7.728,-0.61 -11.524,-1.203 -1.628,-0.254 -2.4576,-1.66343 -3.233,-2.93 -0.6899,-1.12692 -2.8952,-0.66224 -4.054,-0.608 -9.3071,0.43566 -18.874,0.023 -28.194,0.023 -1.92,0 -2.127,-0.119 -3.783,-1.418 -1.665,-1.306 -2.9807,-2.93018 -5.223,-1.936 -1.654,0.73333 -3.3699,2.73114 -5.259,1.829 -2.3152,-1.10562 -2.6457,0.0376 -4.398,0.358"
         id="path3888" />
      <path
         d="m 1392.268,848.013 c 1.293,-1.013 2.748,-3.61 4.447,-3.951 0.756,-0.151 0.688,-1.373 1.523,-1.369 0.937,0.004 1.538,1.493 2.16,2.011 -1.514,1.037 -2.88,1.959 -4.188,3.267 -0.64,0.639 -0.456,0.64 -0.165,1.377 0.41,1.039 0.18,2.267 0.085,3.341 -0.129,1.458 -2.868,2.643 -2.887,0.734 -0.01,-1.053 0.556,-1.3 0.232,-2.464 -0.238,-0.856 -1.54,-2.296 -0.487,-3.085 -0.24,0.045 -0.48,0.092 -0.72,0.139"
         id="path3890" />
    </g>
    <path
       class="land zm"
       d="m 570.23885,740.83552 c 0,-13.04799 0.0462,-26.13687 0.21285,-39.18327 0.0175,-1.39823 -0.48707,-4.27657 1.45801,-4.70225 1.70274,-0.37148 3.80407,0.11 5.53711,0.15624 5.79539,0.15146 11.95269,1.15589 17.58227,-0.70469 -1.82551,-2.01364 -0.89761,-3.81683 -0.0383,-5.99468 1.04109,-2.64659 -0.35713,-4.71603 -0.21843,-7.35624 0.25828,-4.88662 2.35483,-10.48591 0.36829,-15.34702 1.83029,0.0303 1.65045,2.02314 3.55376,2.41541 2.10595,0.43404 1.16865,3.56055 0.35235,4.82284 2.5318,0.55643 2.29902,0.49265 4.76545,-0.58033 2.39788,-1.04269 5.14172,-1.69637 7.74845,-1.84305 -0.93747,1.84305 -0.47671,5.19911 0.98529,6.6643 1.14792,1.14951 3.02445,0.44163 4.44659,1.09371 2.06625,0.94863 3.56747,1.85421 5.9223,1.88609 3.79769,0.051 7.3218,2.55731 8.66582,-2.2767 1.46359,-5.26766 3.01966,0.6202 4.84836,2.21931 1.25155,1.09212 1.08255,2.84588 1.98972,4.17395 1.44765,2.12046 3.03863,0.11129 4.30055,0.94095 1.90905,1.25512 2.6469,2.39918 4.71666,2.36468 2.4363,-0.0407 1.86569,3.94379 3.49031,5.44725 2.38352,2.20655 2.83312,4.05916 4.18671,6.88272 1.70753,3.56333 6.68503,-3.34172 8.56793,-1.03153 -0.82108,0.65367 -0.85456,1.74419 0.19291,2.16191 1.83827,0.73499 1.21329,-2.98937 1.23401,-3.78653 0.12436,-4.61718 0.27901,-9.2535 0.27901,-13.87227 -0.83224,0.31408 -1.74898,0.39858 -2.59876,0.66324 -1.45881,0.45279 -1.03232,1.70987 -1.66193,2.70225 -1.09147,1.72053 -5.92389,-2.2268 -7.03354,-3.38462 -3.35096,-3.49656 -7.1933,-6.36069 -5.21904,-12.16372 1.0682,-3.14003 1.97458,-5.7356 2.85146,-8.40473 0.60505,-1.84177 -0.61637,-4.91213 -0.44578,-6.98795 0.27423,-3.38317 1.94668,-10.52099 -2.57803,-11.91762 1.4636,-3.8519 9.59245,-5.98671 6.48191,-11.12683 6.70623,-1.43309 12.66871,-1.85111 20.31176,-3.55376 0,1.29294 -1.59688,2.93982 -1.54809,3.26549 0.10363,0.69039 2.2732,-0.28157 1.18459,1.52094 0.22703,0.43135 1.05465,-1.87619 3.89542,0.95327 2.93548,2.92383 4.01692,0.98841 3.71798,-0.46609 3.27173,0.033 4.10269,1.18912 5.45691,3.58768 0.59214,1.04862 1.25889,0.62077 2.1565,0.29871 1.16226,-0.41771 1.57057,1.51591 2.52382,1.91639 1.92754,0.80977 5.48067,0.54125 6.10692,2.81979 0.18734,0.68135 1.47795,0.42899 2.27368,0.67759 1.32329,0.41344 2.48285,0.8408 2.96752,1.40421 0.48468,0.56342 0.46507,1.26288 0.22576,1.99331 -0.63024,1.9238 3.78972,1.19415 4.56775,4.06235 0.25988,0.95819 -0.49902,1.5178 -0.35234,2.40744 0.2248,1.3775 1.27068,1.87174 2.22249,2.71674 0.82587,0.73658 1.13517,3.22692 1.48751,4.25527 0.65846,1.92435 -1.59433,3.75305 -3.45172,4.32063 -2.02321,0.61701 -0.85456,2.17626 -0.35713,3.72276 0.77644,2.4186 -0.6473,3.70363 -0.72702,6.03454 -0.1116,3.34809 -1.64853,10.51461 2.54934,11.77891 -1.70912,1.83188 -6.93534,2.69761 -6.90186,5.77307 0.0207,2.01045 0.52996,2.75605 0.12117,5.02851 -0.59516,3.30837 -2.73459,5.25217 -3.51996,7.5651 -0.45263,1.33305 1.04891,2.40312 2.06625,3.1214 1.46997,1.03789 2.15777,0.27409 2.74193,1.2904 -11.36103,5.29534 -23.51589,8.51176 -35.07526,13.22308 -1.48193,1.03803 2.5259,6.30387 1.78055,8.95131 -1.10647,0.12914 -4.16885,0.58917 -5.24343,0.15704 -2.10452,-0.8434 -4.59965,0.45917 -6.57821,1.1256 -2.82356,0.95022 -6.46501,2.62267 -7.07564,5.9022 -0.26147,1.39664 0.0909,2.91922 -0.54685,4.24252 -0.90239,1.87971 -3.39433,2.1077 -5.11302,2.78529 -2.98618,1.17502 -7.01983,3.61594 -8.67156,6.43472 -1.67564,2.85863 -8.25703,15.37253 -13.20583,12.41345 -1.07936,-0.6457 -2.22888,-1.24995 -3.431,-1.631 -1.75376,-0.55801 -3.49796,1.76174 -4.88025,0.99646 -1.08733,-0.60425 -1.51381,-2.62928 -2.89052,-2.30019 -0.30834,0.0737 -3.82384,0.9548 -5.57218,-0.69353 -1.98095,-1.8677 -2.87968,-3.15992 -4.44754,-3.58143 -1.67708,-0.35155 -2.80666,1.40614 -5.86076,-0.40426 -2.42179,-0.37307 -4.10157,0.91022 -6.48318,1.09474 -1.22843,0.0952 -3.58071,1.03869 -4.36528,0.73817 -4.13888,-1.58527 -6.90456,-6.33254 -9.82697,-9.58816 -1.6023,-1.78405 -2.8344,-3.22837 -4.56186,-4.88038 -1.62143,-1.55052 -2.07916,-3.10053 -2.6147,-5.41116"
       id="zm" />
    <path
       class="land na"
       d="m 446.72611,755.74248 c 1.6868,-0.26307 3.01966,-1.74898 4.82285,-1.42852 1.53534,0.27263 2.924,1.43808 4.55021,1.12719 3.38795,-0.6473 5.7093,-4.59805 9.56758,-3.54579 3.07227,0.83862 4.70662,4.29286 7.79053,5.3168 1.74962,0.58094 7.13766,0.35525 10.0006,0.37974 13.09774,0.11208 26.21445,0.37368 39.29545,-0.15306 3.46177,-0.13934 4.63471,-0.39234 6.26874,2.66254 2.07997,3.88861 5.19274,3.02983 8.93001,3.44056 4.89937,0.53845 10.11442,0.31453 14.70354,1.9245 1.76413,0.61895 3.35145,0.84295 4.91038,-0.10204 1.37782,-0.83524 2.69171,-0.5356 4.68239,-0.0489 2.01252,0.49194 3.20524,0.15831 4.54432,-0.15242 8.17397,-1.89678 17.4155,-3.81484 26.07925,-5.45377 1.67883,-0.31758 3.38157,-1.08734 5.12418,-0.82108 1.02993,0.15783 2.58919,1.14951 3.61116,0.63932 3.25721,-1.62621 4.76274,1.8148 6.91189,3.29115 -1.56882,-0.40815 -3.39002,0.50655 -4.87753,1.08529 -1.84942,0.71904 -2.39309,3.47883 -4.16598,1.84783 -2.85385,-2.62427 -8.43082,5.97395 -10.53215,6.98476 -1.02356,-1.9706 -2.12683,-6.35819 -5.04446,-6.63401 -3.75783,-0.35554 -8.43879,1.54172 -12.10096,2.31815 -4.30948,0.91356 -9.40384,1.08908 -13.69578,1.88943 l -1.5846,50.85839 -10.84065,-0.1572 -2.35434,86.70121 c 0.26928,3.96175 -3.11628,2.29393 -5.00365,4.08978 -0.93189,0.88661 -0.86413,1.75041 -2.72439,2.39181 -1.27068,0.43812 -1.86122,0.97191 -0.82491,2.14533 -2.86182,0.84659 -2.72487,-0.22783 -5.38628,-0.62083 -2.79662,-0.41309 -5.1846,1.09802 -8.49395,0.38647 -5.23802,-1.12624 -8.34457,-3.05745 -8.58499,-4.02744 -0.66229,-2.67178 -0.0494,-1.56723 0.059,-3.69135 -0.0988,-0.83926 -1.014,-0.62004 -1.65109,-1.28216 -0.90925,-0.94496 -1.70163,-2.96083 -2.66381,-2.35068 -3.03178,1.92228 -2.19411,4.77661 -3.25243,5.60407 -1.50409,1.17613 -3.39114,2.71737 -4.96156,0.74136 -2.07486,-2.61071 -4.84835,-4.6953 -6.69937,-7.48219 -1.64535,-2.47918 -2.95748,-5.15283 -4.28396,-7.81057 -0.7047,-1.41099 -0.77007,-2.92879 -1.01559,-4.45137 -0.2535,-1.57201 -1.3233,-2.3915 -1.631,-3.82321 -0.56599,-2.62586 0.60584,-3.59043 -1.33765,-6.01062 -0.77643,-0.96617 -0.51656,-1.58955 -0.48945,-2.82356 0.0462,-1.99451 -0.64571,-3.72117 -0.86094,-5.66625 -0.15306,-1.38547 -0.0335,-2.78848 -0.43047,-4.14366 -0.55961,-1.91639 0.39858,-3.77059 0.0255,-5.68698 -0.64252,-3.30345 -2.21293,-6.31833 -3.41187,-9.43524 -1.35359,-3.51869 -0.34119,-6.48893 -0.69513,-10.05066 -0.23915,-2.417 -0.59133,-5.44295 -0.37307,-6.6914 0.10204,-0.58503 1.56882,-6.45544 0.92631,-6.31355 -0.15306,-3.16156 -1.74898,-6.25774 -3.54261,-8.79432 -1.00921,-1.42693 -2.16191,-2.7566 -3.01009,-4.29353 -0.77803,-1.41258 -0.93906,-3.14083 -1.95784,-4.42746 -4.6953,-5.92931 -5.70292,-13.12771 -9.17058,-19.55286 -3.18069,-5.88946 -4.24889,-13.97909 -9.41771,-18.61221 -5.56262,-4.98228 -6.21311,-12.25721 -5.73321,-19.28661"
       id="na" />
    <path
       class="land za"
       d="m 501.93616,911.98693 c 1.19575,-1.12719 3.01488,-0.89761 3.24606,-2.67369 0.1961,-1.50186 1.24836,-4.10859 2.84109,-4.61718 2.09814,-0.67122 1.83508,2.26235 3.26997,2.67528 2.47122,0.70948 -0.051,3.1775 1.15111,4.68414 2.1077,2.64181 5.36014,2.88415 8.4643,3.87104 2.82674,0.8992 5.09707,-0.3667 7.86164,-0.29814 2.47918,0.0638 3.43897,1.46838 5.99309,0.71266 -1.53375,-1.73941 0.36988,-2.01523 1.39822,-2.41859 1.41896,-0.55483 1.52418,-2.3915 3.3194,-2.91444 1.15748,-0.338 3.55535,-0.50221 3.69725,-2.10611 l 1.10168,-49.60766 c 1.35837,1.9132 3.69885,2.81878 4.96315,4.81169 1.44127,2.27511 2.32836,5.30083 3.26742,7.82146 0.94703,2.54455 1.78661,5.30944 0.551,7.93211 -1.58157,3.35607 -2.73906,5.19114 -1.19256,8.93144 2.73428,-3.15677 9.50859,1.64057 12.48042,-1.24676 0.49265,-0.4783 0.11479,-1.70275 0.83861,-1.91161 0.80992,-0.23436 1.51621,-0.067 2.30541,-0.51815 2.06146,-1.17662 2.49193,-3.87901 4.63312,-5.15288 2.35482,-1.39982 3.86147,-2.93994 4.40194,-5.74915 0.47033,-2.4457 0.39061,-4.47847 2.40585,-6.30558 1.75536,-1.59114 4.02728,-1.9116 6.17006,-0.94543 1.76492,0.79716 4.31106,4.54702 5.99149,4.50079 3.77378,-0.10044 8.20601,4.44818 11.7805,1.62143 1.60071,-1.2659 3.9938,0.49424 5.98831,-0.99008 2.13002,-1.58635 2.90486,-4.23613 3.81842,-6.62922 0.48467,-1.26749 0.91514,-2.57325 1.12559,-3.91886 0.34438,-2.18742 -0.70629,-2.0264 1.51302,-2.65616 1.28822,-0.3651 5.05562,-1.00602 5.7635,-2.21452 1.26431,-2.16032 3.769,-3.12967 4.82285,-5.41435 1.14951,-2.48875 0.65846,-5.0604 2.35961,-7.40566 1.45562,-2.00726 3.08981,-2.18583 4.97431,-3.49955 1.93073,-1.34721 4.39397,-3.42144 5.86714,-5.27883 1.25473,-1.58317 2.08857,-4.01133 3.97625,-4.97112 1.88929,-0.95979 4.12135,-1.04748 6.09832,-1.76811 1.89406,-0.69035 1.83985,-1.52737 2.76616,-2.99256 0.78441,-1.24358 2.924,-1.64694 4.22976,-1.91957 5.32665,-1.11604 8.57909,2.3899 13.76066,2.42657 4.6124,0.0335 8.80548,-1.7458 10.32169,3.91567 0.845,3.15837 1.57042,6.37891 1.65492,9.66164 0.0781,2.98777 1.90522,5.55305 2.98618,8.23631 2.31656,5.74596 1.75121,11.20299 1.44733,17.26819 -0.11639,2.33281 0.0159,5.18988 -0.82555,7.65438 -0.40958,1.20324 -0.59165,1.12899 -0.15975,4.59218 0.19499,0.0893 -1.39838,-1.71539 -2.99064,-2.26116 -1.50951,-0.51739 -2.85242,-0.32252 -4.08053,-0.30884 -1.01447,1.98245 -2.55938,1.57488 -3.7175,4.08692 -1.39536,3.02641 -2.6477,7.67954 -3.08088,7.34347 2.24832,2.02695 3.01185,3.64875 4.40417,5.24428 2.2673,2.59797 5.53185,3.97836 8.0104,1.51952 0.67711,-0.67164 -0.338,-1.03504 2.12333,-4.47531 l 2.05923,0.0547 7.2279,0.25004 c -1.36634,6.0441 -3.09476,11.37507 -4.70981,17.36185 -0.83543,3.09779 -2.46962,9.39061 -6.73445,9.08609 0.6744,1.51621 -1.30735,1.462 -2.21931,1.64535 -1.14313,0.23118 -2.11408,1.66767 -2.8395,2.4744 -2.56528,2.85704 -5.18795,6.25296 -6.36616,9.89282 -0.66165,2.04393 -2.46962,3.33534 -3.49796,5.16563 -1.58317,2.81718 -3.23968,5.60885 -5.09229,8.25703 -3.33534,4.77024 -6.90664,7.9876 -11.35004,11.64977 -3.70841,3.05793 -5.89583,7.49814 -9.59946,10.54331 -4.71284,3.87422 -9.32523,7.8728 -14.18316,11.56527 -3.81842,2.90008 -8.19485,6.37253 -13.11177,7.03577 -2.36279,0.32046 -4.70327,-0.97892 -7.03896,-0.26466 -1.69159,0.51657 -4.04801,2.55731 -1.72188,4.01772 -2.76616,1.22922 -5.83525,-2.29584 -8.42763,-0.51816 -3.02444,2.07422 -3.66696,3.29707 -7.817,1.7155 -3.11532,-1.18618 -7.10752,-2.45208 -10.39662,-1.19734 -1.47317,0.56279 -0.7318,1.51142 -2.96386,0.71266 -1.31373,-0.47033 -3.60638,0.34278 -4.2744,-1.17502 -0.043,0.19132 -0.043,0.38264 0,0.57396 -3.37042,-0.54686 -8.76722,1.00602 -10.49548,4.14366 -1.50664,2.73906 -9.03985,-0.0893 -11.43613,0.94385 -1.43808,0.62179 -2.95429,0.20726 -4.30309,0.84499 -1.63419,0.77166 -3.44694,2.33888 -4.88344,3.45491 -1.81275,1.41258 -1.0953,1.13198 -3.19184,0.5931 -0.91037,-0.23278 -1.93712,0.28857 -2.75022,-0.37946 -0.92631,-0.76368 -1.8016,-1.67085 -2.98937,-2.02639 2.08698,-2.86342 -4.32383,-2.97342 -5.73959,-3.22055 0.8705,-2.23046 -0.0383,-4.22338 -2.69282,-3.73392 -1.8016,0.33322 -1.14473,2.46643 -1.10169,3.73392 -3.27475,-1.27387 -0.68396,-5.16562 -0.36669,-7.15216 0.27582,-1.72985 -0.66803,-3.5139 -1.53375,-4.93445 -0.49902,-0.81789 -4.57891,-6.46979 -1.87812,-3.85669 -1.15429,-1.15907 -0.65208,-2.43773 -2.37236,-2.42497 -1.45562,0.0159 0.14349,-3.62232 0.29973,-4.12772 3.7132,2.17945 4.66661,-2.08539 4.73357,-4.94402 0.11638,-4.893 -1.23242,-9.02231 -3.76421,-13.21699 -3.76741,-6.24181 -7.10274,-12.42302 -9.26466,-19.43489 -1.00921,-3.27475 -1.6581,-6.65314 -2.87138,-9.86571 -1.2117,-3.21736 -4.13251,-6.07918 -4.43862,-9.58511"
       id="za" />
    <path
       class="land ls"
       d="m 624.87654,926.67071 c 1.52259,1.50345 1.38707,3.67015 2.61949,5.22302 1.06341,1.34243 0.69991,3.12011 1.81913,4.22657 1.40301,1.39026 5.06359,6.0744 7.49016,4.107 1.06182,-0.86254 1.95943,-3.73711 2.70558,-4.98388 1.17821,-1.97219 3.17909,-1.5752 5.09548,-2.11089 1.39503,-0.39061 4.37962,-1.55926 4.9743,-3.03082 0.75731,-1.87812 0.84181,-2.9527 2.17627,-4.61081 0.5038,-0.62657 2.10929,-2.32453 1.83985,-3.24605 -0.83862,-2.90009 -2.04871,-3.08503 -3.97147,-5.09548 -1.50346,-1.5736 -3.10576,-3.04198 -4.59167,-4.62515 -1.28663,-1.36794 -3.4884,0.79397 -4.66183,1.29778 -1.29619,0.55642 -1.91638,1.16067 -3.18706,1.86059 -1.48911,0.81948 -3.0372,0.52453 -4.22338,2.0503 -1.27865,1.64376 -1.91479,3.67812 -3.05633,5.40957 -1.31054,1.98334 -3.22055,2.21452 -5.02852,3.52825"
       id="ls" />
    <path
       class="land mw"
       d="m 699.91209,706.76471 c 0.39651,-0.7824 2.54535,-4.24205 3.30329,-6.52316 0.76193,-2.29299 0.60632,-2.91792 0.1403,-5.91582 -0.42792,-2.74831 5.77387,-4.48804 7.04136,-5.84641 -4.49458,-1.36648 -2.60992,-8.74919 -2.62267,-12.00052 -0.0159,-2.71191 1.74101,-3.85828 0.26944,-6.59574 -1.7155,-3.19504 0.83447,-2.47608 2.54551,-3.74595 2.00933,-1.49129 2.49943,-4.58819 -0.85871,-8.48767 -2.69856,-3.13369 0.67632,-4.08179 -1.88019,-5.78359 -2.10691,-1.40253 -2.93532,-1.34314 -3.42893,-1.86294 -0.27167,-0.28604 0.50572,-2.0227 -0.24106,-2.91911 0.37323,0.28623 3.00993,1.28798 4.28301,1.45583 1.58683,0.20921 1.15557,1.40654 2.48014,1.59272 1.29651,0.18228 4.16391,-0.0555 4.96984,1.502 0.0351,2.08628 0.13711,4.54686 2.68262,7.62033 2.2936,2.76919 0.11001,3.33202 0.45088,5.54615 0.29017,1.88323 0.98689,10.72609 1.0183,11.75533 0.12435,4.07168 -5.15065,8.11435 -3.74939,10.53536 5.39553,9.32235 3.67398,9.18683 3.37233,11.06036 -1.2557,7.79985 4.03844,6.03808 3.23681,9.56201 -1.98,8.70348 3.25817,7.2874 3.01918,3.14531 l 4.32749,5.5681 c 1.01256,0.51853 0.41803,-7.13888 -2.48253,-9.42081 -2.63065,0.39866 -1.49548,-2.07405 -1.83205,-2.78144 2.07757,1.01093 2.30604,1.15425 4.75334,4.85939 1.62016,2.45302 3.05617,5.02294 5.24407,7.56988 2.4304,2.82915 2.48891,5.54349 1.57775,9.12913 -0.80052,3.1505 0.38232,6.23576 -0.13074,9.50414 -0.22161,1.41098 -0.64251,3.08822 -1.8558,3.9922 -1.3488,1.00602 -3.26997,0.68422 -4.55021,1.78245 -1.25682,1.07797 -0.85696,3.40356 -2.71132,4.89325 0.41054,0.51338 1.78102,3.23054 1.87971,4.74256 0.0478,0.62179 0.0207,2.53981 -0.56439,3.18069 -0.58655,0.6421 -2.847,0.49228 -2.52095,-0.69065 0.68906,-2.50064 1.86153,-1.80464 -0.76975,-4.3299 -1.78294,-1.711 -6.67338,-6.51813 -6.91811,-8.43305 -0.42633,-3.33717 -1.3174,-2.56905 -0.64714,-5.18168 0.30515,-1.18966 1.03328,-3.74433 1.89263,-4.8795 1.36315,-1.80159 1.1291,-2.2998 1.34561,-4.55978 0.25477,-2.66094 0.26912,-6.19201 -1.55734,-8.83514 -0.71633,-1.03665 -2.8682,0.39209 -4.79862,0.61763 -1.56866,0.18328 -3.90674,-0.26592 -3.97051,1.19927 -0.91356,-0.98849 -6.97089,-8.06387 -7.33775,-7.91614 -1.56547,0.63034 -4.8128,-2.84163 -4.40449,-4.10509 z"
       id="mw" />
    <path
       class="land zw"
       d="m 609.0289,763.44312 c 1.54491,0.36032 3.06749,0.68875 4.61718,0.11958 1.50664,-0.55324 2.23685,1.69318 3.2046,2.31656 1.06661,0.68716 2.90455,-0.99791 3.93609,-1.15734 1.33126,-0.20567 3.3229,1.29503 4.4756,1.78927 3.34969,1.43489 5.35998,-1.62058 7.16332,-4.05336 2.40744,-3.24765 4.78937,-6.2886 6.50806,-9.18175 0.82841,-1.3944 1.97442,-1.94907 3.21257,-2.92269 1.67947,-1.3206 3.5281,-2.14806 5.54508,-2.98749 3.92811,-1.63483 4.64269,-2.10452 4.87228,-6.56386 0.1116,-2.18582 3.77218,-4.88821 5.75234,-5.67262 1.85739,-0.73499 4.12453,-1.7458 6.12382,-1.82232 2.42179,-0.0941 4.8643,0.6728 7.26696,0.0638 0,4.56457 -0.39221,5.0046 4.66819,5.0046 3.15359,0 4.91373,0.77706 8.01948,2.02641 1.73081,0.69625 5.72142,3.0204 7.34779,3.89202 2.35403,1.26161 6.29697,0.72355 7.23715,2.71202 0.69337,1.46664 1.88928,1.57486 3.27634,1.16193 -0.35872,2.12046 -1.60708,3.33693 -0.61222,5.52435 1.16705,2.57006 -0.27741,4.45456 0.51656,6.86359 0.77166,2.33729 -0.97254,4.93764 -0.48148,7.47741 0.34278,1.76014 1.41257,3.20779 -0.14828,4.60602 -1.14154,1.02196 -0.0973,3.41346 -0.77006,3.7945 -1.64535,0.9279 -2.06147,0.7876 -2.6992,2.84907 -0.2822,0.91515 1.23401,1.24677 1.68361,1.65492 0.38105,0.34756 0.0606,1.70115 0,2.09335 -0.15465,0.93747 -0.91195,1.44287 -1.17342,2.30859 -0.20248,0.67281 0.83543,3.17909 1.04109,3.93162 0.38264,-0.15465 0.76369,-0.3093 1.14792,-0.46236 -0.12276,2.5047 0.87529,3.49318 -0.63932,6.03773 -1.21967,2.04553 -2.00567,5.44145 -4.2744,6.50806 -2.48078,1.16545 -0.58193,2.74543 -1.04907,4.67457 -0.57237,2.35802 -2.40744,3.72595 -0.57396,6.09034 -1.90523,-1.38547 -10.53613,11.36207 -12.12647,12.37997 -1.50107,0.96081 -2.26682,3.0828 -2.89882,3.06805 -1.35055,-2.8002 -6.68709,-1.63849 -9.38358,-1.63159 -2.34845,0.006 -4.50718,-0.90355 -6.68758,-1.65617 -4.99025,-1.72253 -6.51651,-0.49388 -6.78611,-0.81692 -1.31803,-1.57899 -1.48559,-0.80185 -2.99606,-1.63068 -1.67421,-0.91868 0,-2.39947 -0.53091,-3.093 -2.40107,-3.10894 -11.3097,-1.11751 -12.64942,-4.39397 -1.30815,-3.1992 -3.85876,-6.25502 -2.76935,-9.448 1.4974,-4.38864 -0.65846,-5.39362 -5.04765,-4.49442 0.78601,-4.15004 -0.30133,-5.84162 -4.14366,-6.98316 -3.04198,-0.9024 -7.11071,-4.3031 -8.81824,-6.95766 -2.60514,-4.04641 -2.64021,-9.10681 -5.75553,-13.03524 -1.36315,-1.71391 -5.70611,-7.69583 -4.59805,-9.9837"
       id="zw" />
    <path
       class="land sz"
       d="m 671.26086,886.18023 c 0,0 0.29527,-0.006 0.29527,-0.006 1.52259,1.50345 1.35104,1.22285 2.58345,2.77573 1.06342,1.34242 1.19256,1.95178 2.31178,3.05824 1.40301,1.39026 4.48374,3.32354 6.91031,1.35614 1.06182,-0.86253 0.5628,-0.90351 1.22508,-2.19683 l 1.43761,-2.80761 2.04584,0.005 -0.0478,-0.81534 c -2.47009,-9.83797 0.56966,-3.17989 -1.74659,-9.57619 -1.28519,-1.36937 -2.92479,-2.87744 -4.08834,-3.40373 l -3.83866,-0.15369 c -1.27866,1.64375 -2.2842,1.83077 -3.42574,3.56221 -0.65527,0.99167 -0.90622,1.76078 -1.21919,2.44618 -0.31312,0.68556 -1.53836,5.09819 -2.44235,5.75505 z"
       id="sz" />
  </g>
  <g
     id="sh"
     transform="matrix(1.59433,0,0,1.59433,-1721.78,-693.262)">
    <path
       class="land coast sh"
       d="m 1220.3311,908.35846 c 0.311,-0.488 0.338,-0.992 0.08,-1.512 -0.601,0.418 -0.627,1.032 -0.08,1.512"
       id="sh-" />
    <path
       class="circle sh"
       d="m 1220.2648,912.28455 c 6.2404,0 6.2404,-9.36419 0,-9.36419 -6.2451,0 -6.2451,9.36419 0,9.36419"
       id="sh." />
  </g>
</svg>
